<svg width="280" height="280" viewBox="0 0 280 280" fill="none" xmlns="http://www.w3.org/2000/svg">
<circle cx="145.25" cy="141.75" r="87.75" fill="#F1F3FF"/>
<circle cx="62.9997" cy="82.5" r="5.5" fill="#F1F3FF"/>
<circle cx="205.25" cy="60.75" r="10.25" fill="#F1F3FF"/>
<circle cx="64.7496" cy="198.25" r="9.75" fill="#F1F3FF"/>
<circle cx="239.25" cy="188.75" r="9.75" fill="#F1F3FF"/>
<circle cx="220.25" cy="199.75" r="4.75" fill="#F1F3FF"/>
<path d="M159.262 57.7685C158.972 57.7069 158.972 57.2931 159.262 57.2315L163.645 56.2995C163.751 56.277 163.833 56.1947 163.856 56.0891L164.8 51.7372C164.863 51.4487 165.274 51.4487 165.337 51.7372L166.28 56.0891C166.303 56.1947 166.386 56.277 166.491 56.2995L170.874 57.2315C171.164 57.2931 171.164 57.7069 170.874 57.7685L166.491 58.7005C166.386 58.723 166.303 58.8053 166.28 58.9109L165.337 63.2628C165.274 63.5513 164.863 63.5513 164.8 63.2628L163.856 58.9109C163.833 58.8053 163.751 58.723 163.645 58.7005L159.262 57.7685Z" fill="#C4CBF5"/>
<path d="M40.1112 154.811C40.2231 154.282 40.9776 154.282 41.0895 154.811L42.7609 162.707C42.8017 162.9 42.9515 163.05 43.1437 163.092L50.9584 164.795C51.4832 164.909 51.4832 165.657 50.9584 165.772L43.1437 167.474C42.9515 167.516 42.8017 167.667 42.7609 167.859L41.0895 175.755C40.9776 176.284 40.2231 176.284 40.1112 175.755L38.4398 167.859C38.3991 167.667 38.2493 167.516 38.0571 167.474L30.2423 165.772C29.7176 165.657 29.7176 164.909 30.2423 164.795L38.0571 163.092C38.2493 163.05 38.3991 162.9 38.4398 162.707L40.1112 154.811Z" fill="#C4CBF5"/>
<path d="M223.672 84.811C223.784 84.2824 224.538 84.2824 224.65 84.811L225.625 89.4175C225.666 89.6099 225.816 89.7606 226.008 89.8025L230.58 90.7985C231.105 90.9128 231.105 91.6613 230.58 91.7756L226.008 92.7716C225.816 92.8135 225.666 92.9641 225.625 93.1566L224.65 97.7631C224.538 98.2917 223.784 98.2917 223.672 97.7631L222.697 93.1566C222.656 92.9641 222.506 92.8135 222.314 92.7716L217.742 91.7756C217.217 91.6613 217.217 90.9128 217.742 90.7985L222.314 89.8025C222.506 89.7606 222.656 89.6099 222.697 89.4175L223.672 84.811Z" fill="#C4CBF5"/>
<path d="M243.829 158.665L245.36 165.899L252.491 167.452L245.36 169.006L243.829 176.239L242.298 169.006L235.168 167.452L242.298 165.899L243.829 158.665Z" fill="white"/>
<rect x="143.423" y="91.4457" width="90.1042" height="97.0039" rx="5.24599" transform="rotate(10 143.423 91.4457)" fill="white" stroke="#C4CBF5" stroke-width="2"/>
<rect x="147.728" y="97.5942" width="78.9585" height="68.8743" rx="5.24599" transform="rotate(10 147.728 97.5942)" fill="#F1F3FF" stroke="#F1F3FF" stroke-width="2"/>
<rect x="56.3417" y="107.092" width="90.1042" height="97.0039" rx="5.24599" transform="rotate(-10 56.3417 107.092)" fill="white" stroke="#C4CBF5" stroke-width="2"/>
<rect x="62.4903" y="111.398" width="78.9585" height="68.8743" rx="5.24599" transform="rotate(-10 62.4903 111.398)" fill="#F1F3FF" stroke="#F1F3FF" stroke-width="2"/>
<rect x="93.3065" y="83.5001" width="107.467" height="115.726" rx="6.08275" fill="white" stroke="#C4CBF5" stroke-width="2"/>
<rect x="99.66" y="89.8536" width="94.1248" height="82.0533" rx="6.08275" fill="#F1F3FF" stroke="#C4CBF5" stroke-width="2"/>
<path d="M182.424 123.03H112.424C110.081 123.03 108.182 124.93 108.182 127.273V137.879C108.182 140.222 110.081 142.121 112.424 142.121H182.424C184.767 142.121 186.667 140.222 186.667 137.879V127.273C186.667 124.93 184.767 123.03 182.424 123.03Z" stroke="#C4CBF5" stroke-width="2.12121"/>
<path opacity="0.45" d="M159.091 144.242C162.02 144.242 164.394 141.868 164.394 138.939C164.394 136.011 162.02 133.636 159.091 133.636C156.162 133.636 153.788 136.011 153.788 138.939C153.788 141.868 156.162 144.242 159.091 144.242Z" fill="#C4CBF5"/>
<path d="M163.235 161.605C162.386 161.605 161.594 161.605 160.873 161.559C159.984 161.499 159.13 161.195 158.403 160.68C157.676 160.166 157.106 159.461 156.753 158.643L152.279 149.8C151.951 149.418 151.787 148.922 151.823 148.419C151.859 147.917 152.092 147.449 152.472 147.118C152.783 146.868 153.171 146.733 153.57 146.737C153.863 146.746 154.152 146.818 154.415 146.948C154.678 147.079 154.909 147.265 155.094 147.494L157.126 150.268L157.156 150.304V139.767C157.156 139.244 157.364 138.743 157.734 138.373C158.103 138.003 158.605 137.796 159.128 137.796C159.65 137.796 160.152 138.003 160.521 138.373C160.891 138.743 161.099 139.244 161.099 139.767V146.661C161.076 146.407 161.106 146.151 161.187 145.91C161.269 145.669 161.4 145.447 161.571 145.259C161.743 145.071 161.952 144.921 162.185 144.818C162.419 144.715 162.67 144.662 162.925 144.662C163.18 144.662 163.432 144.715 163.665 144.818C163.898 144.921 164.107 145.071 164.279 145.259C164.451 145.447 164.581 145.669 164.663 145.91C164.744 146.151 164.774 146.407 164.751 146.661V148.098C164.729 147.844 164.759 147.588 164.84 147.347C164.922 147.106 165.052 146.884 165.224 146.696C165.396 146.508 165.605 146.358 165.838 146.255C166.071 146.152 166.323 146.099 166.578 146.099C166.833 146.099 167.084 146.152 167.318 146.255C167.551 146.358 167.76 146.508 167.932 146.696C168.103 146.884 168.234 147.106 168.316 147.347C168.397 147.588 168.427 147.844 168.404 148.098V149.205C168.381 148.951 168.412 148.696 168.493 148.454C168.574 148.213 168.705 147.991 168.877 147.803C169.049 147.615 169.258 147.465 169.491 147.362C169.724 147.259 169.976 147.206 170.231 147.206C170.485 147.206 170.737 147.259 170.97 147.362C171.203 147.465 171.412 147.615 171.584 147.803C171.756 147.991 171.887 148.213 171.968 148.454C172.05 148.696 172.08 148.951 172.057 149.205V155.926C172.021 157.993 171.087 161.478 167.8 161.478C167.561 161.489 165.54 161.606 163.239 161.606L163.235 161.605Z" fill="#C4CBF5"/>
</svg>
